<?xml version="1.0" encoding="UTF-8" standalone="no"?>
<!DOCTYPE svg PUBLIC "-//W3C//DTD SVG 1.1//EN" "http://www.w3.org/Graphics/SVG/1.1/DTD/svg11.dtd">
<svg xmlns="http://www.w3.org/2000/svg" version="1.1" viewBox="0.00 0.00 1366.00 768.00">
<g stroke-width="2.00" fill="none" stroke-linecap="butt">
<path stroke="#808080" vector-effect="non-scaling-stroke" d="
  M 468.99 348.93
  C 475.43 350.50 475.55 358.48 469.35 360.56
  Q 458.73 364.12 451.78 355.96
  Q 451.41 355.53 450.90 355.79
  L 449.51 356.50
  Q 448.95 356.79 449.31 357.31
  C 453.76 363.72 461.18 365.37 468.52 363.69
  Q 472.33 362.82 474.54 360.49
  C 478.16 356.66 477.57 349.96 472.50 347.35
  C 467.07 344.55 459.14 345.33 454.94 342.06
  C 451.98 339.77 452.81 335.79 455.66 333.87
  C 461.29 330.06 469.05 331.35 473.36 335.82
  Q 473.76 336.23 474.25 335.96
  L 475.46 335.28
  Q 475.91 335.03 475.62 334.61
  C 472.38 329.90 467.65 328.81 462.20 329.05
  C 456.91 329.28 450.91 331.52 450.27 337.48
  C 449.82 341.61 452.32 345.02 456.31 345.94
  Q 462.67 347.39 468.99 348.93"
/>
<path stroke="#808080" vector-effect="non-scaling-stroke" d="
  M 560.3502 344.7189
  A 15.48 15.48 0.0 0 0 544.9515 329.1580
  L 541.9715 329.1424
  A 15.48 15.48 0.0 0 0 526.4107 344.5412
  L 526.3898 348.5411
  A 15.48 15.48 0.0 0 0 541.7885 364.1020
  L 544.7685 364.1176
  A 15.48 15.48 0.0 0 0 560.3293 348.7188
  L 560.3502 344.7189"
/>
<path stroke="#808080" vector-effect="non-scaling-stroke" d="
  M 870.2566 344.6703
  A 15.52 15.52 0.0 0 0 854.7095 329.1774
  L 851.6695 329.1827
  A 15.52 15.52 0.0 0 0 836.1767 344.7297
  L 836.1834 348.5897
  A 15.52 15.52 0.0 0 0 851.7305 364.0826
  L 854.7705 364.0773
  A 15.52 15.52 0.0 0 0 870.2633 348.5303
  L 870.2566 344.6703"
/>
<path stroke="#808080" vector-effect="non-scaling-stroke" d="
  M 679.76 356.71
  L 657.69 329.62
  A 0.81 0.81 0.0 0 0 656.25 330.13
  L 656.25 363.25
  Q 656.25 363.75 656.75 363.75
  L 658.63 363.75
  Q 659.25 363.75 659.25 363.12
  L 659.25 336.96
  Q 659.25 336.14 659.77 336.78
  L 681.71 363.63
  A 0.73 0.73 0.0 0 0 683.00 363.17
  L 683.00 329.99
  Q 683.00 329.49 682.49 329.49
  L 680.75 329.50
  Q 680.25 329.50 680.25 330.00
  L 680.25 356.53
  Q 680.25 357.31 679.76 356.71"
/>
<path stroke="#808080" vector-effect="non-scaling-stroke" d="
  M 409.11 350.84
  Q 419.60 349.23 419.12 339.97
  C 418.80 333.81 414.64 329.70 408.50 329.51
  Q 404.56 329.40 393.47 329.54
  Q 393.00 329.55 393.00 330.02
  L 393.00 363.27
  Q 393.00 363.79 393.52 363.78
  L 395.27 363.73
  Q 395.75 363.71 395.75 363.23
  L 395.75 351.50
  Q 395.75 351.00 396.25 351.00
  L 404.45 351.00
  Q 404.86 351.00 405.13 351.30
  L 416.14 363.36
  Q 416.48 363.74 417.00 363.74
  L 419.54 363.76
  A 0.39 0.39 0.0 0 0 419.83 363.10
  L 408.94 351.31
  Q 408.58 350.92 409.11 350.84"
/>
<path stroke="#808080" vector-effect="non-scaling-stroke" d="
  M 435.25 329.82
  A 0.33 0.33 0.0 0 0 434.92 329.49
  L 432.58 329.49
  A 0.33 0.33 0.0 0 0 432.25 329.82
  L 432.25 363.42
  A 0.33 0.33 0.0 0 0 432.58 363.75
  L 434.92 363.75
  A 0.33 0.33 0.0 0 0 435.25 363.42
  L 435.25 329.82"
/>
<path stroke="#808080" vector-effect="non-scaling-stroke" d="
  M 502.50 332.64
  A 0.39 0.39 0.0 0 1 502.89 332.25
  L 514.36 332.25
  A 0.39 0.39 0.0 0 0 514.75 331.86
  L 514.74 329.89
  A 0.39 0.39 0.0 0 0 514.35 329.50
  L 487.88 329.50
  A 0.39 0.39 0.0 0 0 487.49 329.89
  L 487.51 331.86
  A 0.39 0.39 0.0 0 0 487.90 332.25
  L 499.36 332.25
  A 0.39 0.39 0.0 0 1 499.75 332.64
  L 499.75 363.37
  A 0.39 0.39 0.0 0 0 500.15 363.76
  L 502.12 363.74
  A 0.39 0.39 0.0 0 0 502.50 363.35
  L 502.50 332.64"
/>
<path stroke="#808080" vector-effect="non-scaling-stroke" d="
  M 590.94 350.76
  C 602.52 349.70 604.80 334.73 594.58 330.50
  C 589.88 328.55 580.82 329.49 575.25 329.51
  Q 574.75 329.51 574.75 330.01
  L 574.75 363.14
  Q 574.75 363.77 575.39 363.76
  L 576.89 363.74
  Q 577.50 363.73 577.50 363.11
  L 577.50 351.50
  Q 577.50 351.00 578.00 351.00
  L 585.99 351.00
  A 1.42 1.38 68.3 0 1 587.02 351.46
  L 597.82 363.28
  Q 598.25 363.75 598.89 363.75
  L 601.30 363.75
  Q 602.17 363.75 601.58 363.10
  L 590.72 351.34
  Q 590.24 350.82 590.94 350.76"
/>
<path stroke="#808080" vector-effect="non-scaling-stroke" d="
  M 637.53 355.89
  L 640.83 363.23
  Q 641.06 363.74 641.63 363.75
  L 643.50 363.77
  Q 644.23 363.78 643.93 363.11
  L 629.30 330.45
  A 2.15 2.15 0.0 0 0 625.38 330.45
  L 610.68 363.22
  Q 610.45 363.74 611.02 363.74
  L 613.04 363.75
  Q 613.61 363.75 613.84 363.23
  L 617.05 355.98
  Q 617.27 355.50 617.79 355.50
  L 636.93 355.50
  Q 637.36 355.50 637.53 355.89"
/>
<path stroke="#808080" vector-effect="non-scaling-stroke" d="
  M 711.00 332.64
  A 0.39 0.39 0.0 0 1 711.39 332.25
  L 722.87 332.25
  A 0.39 0.39 0.0 0 0 723.26 331.86
  L 723.25 329.89
  A 0.39 0.39 0.0 0 0 722.86 329.50
  L 696.14 329.50
  A 0.39 0.39 0.0 0 0 695.75 329.89
  L 695.75 331.86
  A 0.39 0.39 0.0 0 0 696.14 332.25
  L 707.61 332.25
  A 0.39 0.39 0.0 0 1 708.00 332.64
  L 708.00 363.36
  A 0.39 0.39 0.0 0 0 708.39 363.75
  L 710.61 363.75
  A 0.39 0.39 0.0 0 0 711.00 363.36
  L 711.00 332.64"
/>
<path stroke="#808080" vector-effect="non-scaling-stroke" d="
  M 739.19 345.25
  A 0.44 0.44 0.0 0 1 738.75 344.81
  L 738.75 332.69
  A 0.44 0.44 0.0 0 1 739.19 332.25
  L 759.09 332.25
  A 0.44 0.44 0.0 0 0 759.53 331.80
  L 759.46 329.94
  A 0.44 0.44 0.0 0 0 759.02 329.51
  L 736.44 329.49
  A 0.44 0.44 0.0 0 0 736.00 329.93
  L 736.00 363.31
  A 0.44 0.44 0.0 0 0 736.44 363.75
  L 759.55 363.75
  A 0.44 0.44 0.0 0 0 759.99 363.31
  L 760.00 361.44
  A 0.44 0.44 0.0 0 0 759.56 361.00
  L 739.19 361.00
  A 0.44 0.44 0.0 0 1 738.75 360.56
  L 738.75 348.19
  A 0.44 0.44 0.0 0 1 739.19 347.75
  L 758.08 347.75
  A 0.44 0.44 0.0 0 0 758.52 347.30
  L 758.50 345.68
  A 0.44 0.44 0.0 0 0 758.06 345.25
  L 739.19 345.25"
/>
<path stroke="#808080" vector-effect="non-scaling-stroke" d="
  M 798.35 345.75
  A 0.35 0.35 0.0 0 1 798.00 345.40
  L 798.00 329.83
  A 0.35 0.35 0.0 0 0 797.65 329.48
  L 795.35 329.50
  A 0.35 0.35 0.0 0 0 795.00 329.85
  L 795.00 363.40
  A 0.35 0.35 0.0 0 0 795.35 363.75
  L 797.65 363.74
  A 0.35 0.35 0.0 0 0 798.00 363.39
  L 798.00 348.60
  A 0.35 0.35 0.0 0 1 798.35 348.25
  L 818.90 348.25
  A 0.35 0.35 0.0 0 1 819.25 348.60
  L 819.25 363.41
  A 0.35 0.35 0.0 0 0 819.60 363.76
  L 821.90 363.74
  A 0.35 0.35 0.0 0 0 822.25 363.39
  L 822.25 329.85
  A 0.35 0.35 0.0 0 0 821.90 329.50
  L 819.60 329.50
  A 0.35 0.35 0.0 0 0 819.25 329.85
  L 819.25 345.40
  A 0.35 0.35 0.0 0 1 818.90 345.75
  L 798.35 345.75"
/>
<path stroke="#808080" vector-effect="non-scaling-stroke" d="
  M 895.00 332.58
  A 0.33 0.33 0.0 0 1 895.33 332.25
  L 906.93 332.25
  A 0.33 0.33 0.0 0 0 907.26 331.92
  L 907.25 329.83
  A 0.33 0.33 0.0 0 0 906.92 329.50
  L 880.08 329.50
  A 0.33 0.33 0.0 0 0 879.75 329.83
  L 879.75 331.92
  A 0.33 0.33 0.0 0 0 880.08 332.25
  L 891.67 332.25
  A 0.33 0.33 0.0 0 1 892.00 332.58
  L 892.00 363.42
  A 0.33 0.33 0.0 0 0 892.33 363.75
  L 894.67 363.75
  A 0.33 0.33 0.0 0 0 895.00 363.42
  L 895.00 332.58"
/>
<path stroke="#808080" vector-effect="non-scaling-stroke" d="
  M 923.12 345.25
  A 0.37 0.37 0.0 0 1 922.75 344.88
  L 922.75 332.62
  A 0.37 0.37 0.0 0 1 923.12 332.25
  L 943.15 332.25
  A 0.37 0.37 0.0 0 0 943.52 331.87
  L 943.48 329.86
  A 0.37 0.37 0.0 0 0 943.11 329.50
  L 920.37 329.50
  A 0.37 0.37 0.0 0 0 920.00 329.87
  L 920.00 363.38
  A 0.37 0.37 0.0 0 0 920.37 363.75
  L 943.88 363.75
  A 0.37 0.37 0.0 0 0 944.25 363.38
  L 944.27 361.37
  A 0.37 0.37 0.0 0 0 943.90 361.00
  L 923.12 361.00
  A 0.37 0.37 0.0 0 1 922.75 360.63
  L 922.75 348.12
  A 0.37 0.37 0.0 0 1 923.12 347.75
  L 942.15 347.75
  A 0.37 0.37 0.0 0 0 942.52 347.38
  L 942.49 345.62
  A 0.37 0.37 0.0 0 0 942.12 345.25
  L 923.12 345.25"
/>
<path stroke="#808080" vector-effect="non-scaling-stroke" d="
  M 960.98 361.00
  A 0.47 0.47 0.0 0 1 960.51 360.53
  L 960.48 329.97
  A 0.47 0.47 0.0 0 0 960.01 329.50
  L 958.22 329.48
  A 0.47 0.47 0.0 0 0 957.75 329.95
  L 957.75 363.28
  A 0.47 0.47 0.0 0 0 958.22 363.75
  L 979.28 363.75
  A 0.47 0.47 0.0 0 0 979.75 363.29
  L 979.76 361.48
  A 0.47 0.47 0.0 0 0 979.29 361.00
  L 960.98 361.00"
/>
<path stroke="#808080" vector-effect="non-scaling-stroke" d="
  M 379.00 345.06
  A 0.31 0.31 0.0 0 0 378.69 344.75
  L 345.81 344.75
  A 0.31 0.31 0.0 0 0 345.50 345.06
  L 345.50 348.44
  A 0.31 0.31 0.0 0 0 345.81 348.75
  L 378.69 348.75
  A 0.31 0.31 0.0 0 0 379.00 348.44
  L 379.00 345.06"
/>
<path stroke="#808080" vector-effect="non-scaling-stroke" d="
  M 1020.25 345.09
  A 0.34 0.34 0.0 0 0 1019.91 344.75
  L 986.59 344.75
  A 0.34 0.34 0.0 0 0 986.25 345.09
  L 986.25 348.41
  A 0.34 0.34 0.0 0 0 986.59 348.75
  L 1019.91 348.75
  A 0.34 0.34 0.0 0 0 1020.25 348.41
  L 1020.25 345.09"
/>
<path stroke="#808080" vector-effect="non-scaling-stroke" d="
  M 350.14 435.00
  A 0.39 0.39 0.0 0 1 349.75 434.61
  L 349.75 389.64
  A 0.39 0.39 0.0 0 0 349.36 389.25
  L 346.14 389.25
  A 0.39 0.39 0.0 0 0 345.75 389.64
  L 345.75 438.61
  A 0.39 0.39 0.0 0 0 346.14 439.00
  L 377.35 439.00
  A 0.39 0.39 0.0 0 0 377.74 438.61
  L 377.75 435.39
  A 0.39 0.39 0.0 0 0 377.36 435.00
  L 350.14 435.00"
/>
<path stroke="#808080" vector-effect="non-scaling-stroke" d="
  M 424.73 394.25
  A 0.38 0.38 0.0 0 1 425.42 394.25
  L 444.92 438.41
  Q 445.18 439.01 445.83 439.00
  L 448.91 438.98
  Q 449.63 438.98 449.33 438.32
  L 427.99 390.75
  A 3.16 3.16 0.0 0 0 422.23 390.75
  L 400.87 438.36
  Q 400.58 439.02 401.30 439.01
  L 404.64 438.97
  A 0.66 0.65 11.6 0 0 405.24 438.58
  L 424.73 394.25"
/>
<path stroke="#808080" vector-effect="non-scaling-stroke" d="
  M 534.75 393.38
  A 0.38 0.38 0.0 0 1 535.13 393.00
  L 552.37 393.00
  A 0.38 0.38 0.0 0 0 552.75 392.62
  L 552.75 389.63
  A 0.38 0.38 0.0 0 0 552.37 389.25
  L 513.13 389.25
  A 0.38 0.38 0.0 0 0 512.75 389.63
  L 512.75 392.62
  A 0.38 0.38 0.0 0 0 513.13 393.00
  L 530.37 393.00
  A 0.38 0.38 0.0 0 1 530.75 393.38
  L 530.75 438.62
  A 0.38 0.38 0.0 0 0 531.13 439.00
  L 534.37 438.99
  A 0.38 0.38 0.0 0 0 534.75 438.61
  L 534.75 393.38"
/>
<path stroke="#808080" vector-effect="non-scaling-stroke" d="
  M 614.99 389.74
  A 0.49 0.49 0.0 0 0 614.50 389.25
  L 579.74 389.25
  A 0.49 0.49 0.0 0 0 579.25 389.74
  L 579.25 392.50
  A 0.49 0.49 0.0 0 0 579.74 392.99
  L 614.50 392.99
  A 0.49 0.49 0.0 0 0 614.99 392.50
  L 614.99 389.74"
/>
<path stroke="#808080" vector-effect="non-scaling-stroke" d="
  M 650.00 420.25
  L 662.29 420.25
  Q 662.81 420.25 663.16 420.64
  L 679.56 438.59
  Q 679.92 438.98 680.45 438.98
  L 684.64 438.98
  A 0.35 0.35 0.0 0 0 684.89 438.39
  L 668.54 420.69
  Q 667.94 420.05 668.82 420.01
  C 686.64 419.29 689.18 395.98 673.57 390.35
  Q 670.14 389.12 663.82 389.20
  Q 654.96 389.31 646.02 389.23
  Q 645.50 389.23 645.50 389.75
  L 645.50 438.50
  Q 645.50 439.00 646.00 439.00
  L 649.00 439.00
  Q 649.50 439.00 649.50 438.50
  L 649.50 420.75
  Q 649.50 420.25 650.00 420.25"
/>
<path stroke="#808080" vector-effect="non-scaling-stroke" d="
  M 717.00 420.25
  L 729.44 420.25
  Q 729.87 420.25 730.15 420.56
  Q 737.45 428.52 744.70 436.55
  C 746.86 438.93 748.70 439.62 751.76 438.85
  Q 752.24 438.72 751.90 438.36
  L 735.37 420.44
  A 0.27 0.27 0.0 0 1 735.57 419.99
  C 756.31 419.90 755.76 389.57 734.98 389.32
  Q 724.05 389.19 712.99 389.27
  Q 712.50 389.27 712.50 389.76
  L 712.50 438.50
  Q 712.50 439.00 713.00 439.00
  L 716.00 439.00
  Q 716.50 439.00 716.50 438.50
  L 716.50 420.75
  Q 716.50 420.25 717.00 420.25"
/>
<path stroke="#808080" vector-effect="non-scaling-stroke" d="
  M 798.45 394.29
  A 0.40 0.40 0.0 0 1 799.18 394.29
  L 818.65 438.41
  Q 818.91 439.00 819.56 439.00
  L 822.65 438.99
  Q 823.36 438.98 823.07 438.33
  L 801.73 390.75
  A 3.16 3.16 0.0 0 0 795.97 390.75
  L 774.61 438.37
  Q 774.33 439.00 775.02 439.00
  L 778.14 439.00
  Q 778.79 439.00 779.05 438.41
  L 798.45 394.29"
/>
<path stroke="#808080" vector-effect="non-scaling-stroke" d="
  M 879.75 393.00
  A 0.32 0.32 0.0 0 1 880.01 393.50
  L 849.04 437.12
  A 1.19 1.18 17.7 0 0 850.01 438.99
  L 886.12 439.00
  Q 886.74 439.00 886.74 438.38
  L 886.75 435.63
  Q 886.75 435.00 886.13 435.00
  L 855.97 435.00
  A 0.43 0.43 0.0 0 1 855.62 434.31
  L 886.41 391.46
  Q 888.00 389.25 885.28 389.25
  L 851.25 389.25
  Q 850.76 389.25 850.75 389.75
  L 850.74 392.50
  Q 850.74 393.00 851.25 393.00
  L 879.75 393.00"
/>
<path stroke="#808080" vector-effect="non-scaling-stroke" d="
  M 917.68 434.28
  L 948.99 390.71
  A 0.92 0.92 0.0 0 0 948.24 389.25
  L 913.25 389.25
  Q 912.75 389.25 912.75 389.75
  L 912.75 392.37
  Q 912.75 393.00 913.37 393.00
  L 941.66 393.00
  Q 942.41 393.00 941.98 393.62
  L 911.06 437.16
  A 1.16 1.16 0.0 0 0 912.01 438.99
  L 948.36 439.00
  Q 948.98 439.00 948.98 438.39
  L 949.00 435.88
  Q 949.00 435.01 948.13 435.01
  L 918.05 434.99
  A 0.45 0.45 0.0 0 1 917.68 434.28"
/>
<path stroke="#808080" vector-effect="non-scaling-stroke" d="
  M 995.68 394.27
  A 0.39 0.39 0.0 0 1 996.39 394.27
  L 1015.87 438.42
  Q 1016.13 439.00 1016.76 439.00
  L 1019.89 438.99
  Q 1020.59 438.98 1020.30 438.35
  L 998.95 390.75
  A 3.16 3.16 0.0 0 0 993.18 390.75
  L 971.84 438.34
  Q 971.54 439.00 972.27 439.00
  L 975.49 438.99
  Q 976.01 438.99 976.22 438.52
  L 995.68 394.27"
/>
<path stroke="#808080" vector-effect="non-scaling-stroke" d="
  M 613.25 412.31
  A 0.31 0.31 0.0 0 0 612.94 412.00
  L 579.56 412.00
  A 0.31 0.31 0.0 0 0 579.25 412.31
  L 579.25 415.43
  A 0.31 0.31 0.0 0 0 579.56 415.74
  L 612.94 415.74
  A 0.31 0.31 0.0 0 0 613.25 415.43
  L 613.25 412.31"
/>
<path stroke="#808080" vector-effect="non-scaling-stroke" d="
  M 615.98 435.73
  A 0.72 0.72 0.0 0 0 615.26 435.01
  L 579.94 435.01
  A 0.72 0.72 0.0 0 0 579.22 435.73
  L 579.22 438.27
  A 0.72 0.72 0.0 0 0 579.94 438.99
  L 615.26 438.99
  A 0.72 0.72 0.0 0 0 615.98 438.27
  L 615.98 435.73"
/>
<path stroke="#808080" vector-effect="non-scaling-stroke" d="
  M 543.9241 361.7398
  A 15.12 14.56 87.9 0 0 557.9202 346.0965
  A 15.12 14.56 87.9 0 0 542.8159 331.5202
  A 15.12 14.56 87.9 0 0 528.8198 347.1635
  A 15.12 14.56 87.9 0 0 543.9241 361.7398"
/>
<path stroke="#808080" vector-effect="non-scaling-stroke" d="
  M 853.4111 361.7385
  A 15.12 14.56 89.2 0 0 867.7586 346.4167
  A 15.12 14.56 89.2 0 0 852.9889 331.5015
  A 15.12 14.56 89.2 0 0 838.6414 346.8233
  A 15.12 14.56 89.2 0 0 853.4111 361.7385"
/>
<path stroke="#808080" vector-effect="non-scaling-stroke" d="
  M 395.73 332.64
  L 395.73 347.88
  A 0.40 0.40 0.0 0 0 396.13 348.28
  L 408.17 348.28
  A 7.84 7.42 -0.0 0 0 416.01 340.86
  L 416.01 339.66
  A 7.84 7.42 0.0 0 0 408.17 332.24
  L 396.13 332.24
  A 0.40 0.40 0.0 0 0 395.73 332.64"
/>
<path stroke="#808080" vector-effect="non-scaling-stroke" d="
  M 577.49 332.59
  L 577.51 347.93
  A 0.32 0.32 0.0 0 0 577.83 348.25
  L 589.94 348.23
  A 7.83 7.34 -0.1 0 0 597.76 340.87
  L 597.76 339.57
  A 7.83 7.34 -0.1 0 0 589.92 332.25
  L 577.81 332.27
  A 0.32 0.32 0.0 0 0 577.49 332.59"
/>
<path stroke="#808080" vector-effect="non-scaling-stroke" d="
  M 618.65 352.26
  A 0.35 0.35 0.0 0 0 618.97 352.75
  L 635.67 352.75
  A 0.35 0.35 0.0 0 0 635.99 352.26
  L 627.64 333.34
  A 0.35 0.35 0.0 0 0 627.00 333.34
  L 618.65 352.26"
/>
<path stroke="#808080" vector-effect="non-scaling-stroke" d="
  M 649.54 393.29
  L 649.46 416.13
  A 0.33 0.33 0.0 0 0 649.79 416.46
  L 667.63 416.52
  A 11.59 10.76 0.2 0 0 679.26 405.80
  L 679.26 403.82
  A 11.59 10.76 0.2 0 0 667.71 393.02
  L 649.87 392.96
  A 0.33 0.33 0.0 0 0 649.54 393.29"
/>
<path stroke="#808080" vector-effect="non-scaling-stroke" d="
  M 716.47 393.61
  L 716.39 415.87
  A 0.68 0.68 0.0 0 0 717.07 416.55
  L 734.51 416.61
  A 11.90 11.41 0.2 0 0 746.45 405.24
  L 746.45 404.44
  A 11.90 11.41 0.2 0 0 734.59 392.99
  L 717.15 392.93
  A 0.68 0.68 0.0 0 0 716.47 393.61"
/>
</g>
<path fill="#000000" d="
  M 0.00 0.00
  L 1366.00 0.00
  L 1366.00 768.00
  L 0.00 768.00
  L 0.00 0.00
  Z
  M 468.99 348.93
  C 475.43 350.50 475.55 358.48 469.35 360.56
  Q 458.73 364.12 451.78 355.96
  Q 451.41 355.53 450.90 355.79
  L 449.51 356.50
  Q 448.95 356.79 449.31 357.31
  C 453.76 363.72 461.18 365.37 468.52 363.69
  Q 472.33 362.82 474.54 360.49
  C 478.16 356.66 477.57 349.96 472.50 347.35
  C 467.07 344.55 459.14 345.33 454.94 342.06
  C 451.98 339.77 452.81 335.79 455.66 333.87
  C 461.29 330.06 469.05 331.35 473.36 335.82
  Q 473.76 336.23 474.25 335.96
  L 475.46 335.28
  Q 475.91 335.03 475.62 334.61
  C 472.38 329.90 467.65 328.81 462.20 329.05
  C 456.91 329.28 450.91 331.52 450.27 337.48
  C 449.82 341.61 452.32 345.02 456.31 345.94
  Q 462.67 347.39 468.99 348.93
  Z
  M 560.3502 344.7189
  A 15.48 15.48 0.0 0 0 544.9515 329.1580
  L 541.9715 329.1424
  A 15.48 15.48 0.0 0 0 526.4107 344.5412
  L 526.3898 348.5411
  A 15.48 15.48 0.0 0 0 541.7885 364.1020
  L 544.7685 364.1176
  A 15.48 15.48 0.0 0 0 560.3293 348.7188
  L 560.3502 344.7189
  Z
  M 870.2566 344.6703
  A 15.52 15.52 0.0 0 0 854.7095 329.1774
  L 851.6695 329.1827
  A 15.52 15.52 0.0 0 0 836.1767 344.7297
  L 836.1834 348.5897
  A 15.52 15.52 0.0 0 0 851.7305 364.0826
  L 854.7705 364.0773
  A 15.52 15.52 0.0 0 0 870.2633 348.5303
  L 870.2566 344.6703
  Z
  M 679.76 356.71
  L 657.69 329.62
  A 0.81 0.81 0.0 0 0 656.25 330.13
  L 656.25 363.25
  Q 656.25 363.75 656.75 363.75
  L 658.63 363.75
  Q 659.25 363.75 659.25 363.12
  L 659.25 336.96
  Q 659.25 336.14 659.77 336.78
  L 681.71 363.63
  A 0.73 0.73 0.0 0 0 683.00 363.17
  L 683.00 329.99
  Q 683.00 329.49 682.49 329.49
  L 680.75 329.50
  Q 680.25 329.50 680.25 330.00
  L 680.25 356.53
  Q 680.25 357.31 679.76 356.71
  Z
  M 409.11 350.84
  Q 419.60 349.23 419.12 339.97
  C 418.80 333.81 414.64 329.70 408.50 329.51
  Q 404.56 329.40 393.47 329.54
  Q 393.00 329.55 393.00 330.02
  L 393.00 363.27
  Q 393.00 363.79 393.52 363.78
  L 395.27 363.73
  Q 395.75 363.71 395.75 363.23
  L 395.75 351.50
  Q 395.75 351.00 396.25 351.00
  L 404.45 351.00
  Q 404.86 351.00 405.13 351.30
  L 416.14 363.36
  Q 416.48 363.74 417.00 363.74
  L 419.54 363.76
  A 0.39 0.39 0.0 0 0 419.83 363.10
  L 408.94 351.31
  Q 408.58 350.92 409.11 350.84
  Z
  M 435.25 329.82
  A 0.33 0.33 0.0 0 0 434.92 329.49
  L 432.58 329.49
  A 0.33 0.33 0.0 0 0 432.25 329.82
  L 432.25 363.42
  A 0.33 0.33 0.0 0 0 432.58 363.75
  L 434.92 363.75
  A 0.33 0.33 0.0 0 0 435.25 363.42
  L 435.25 329.82
  Z
  M 502.50 332.64
  A 0.39 0.39 0.0 0 1 502.89 332.25
  L 514.36 332.25
  A 0.39 0.39 0.0 0 0 514.75 331.86
  L 514.74 329.89
  A 0.39 0.39 0.0 0 0 514.35 329.50
  L 487.88 329.50
  A 0.39 0.39 0.0 0 0 487.49 329.89
  L 487.51 331.86
  A 0.39 0.39 0.0 0 0 487.90 332.25
  L 499.36 332.25
  A 0.39 0.39 0.0 0 1 499.75 332.64
  L 499.75 363.37
  A 0.39 0.39 0.0 0 0 500.15 363.76
  L 502.12 363.74
  A 0.39 0.39 0.0 0 0 502.50 363.35
  L 502.50 332.64
  Z
  M 590.94 350.76
  C 602.52 349.70 604.80 334.73 594.58 330.50
  C 589.88 328.55 580.82 329.49 575.25 329.51
  Q 574.75 329.51 574.75 330.01
  L 574.75 363.14
  Q 574.75 363.77 575.39 363.76
  L 576.89 363.74
  Q 577.50 363.73 577.50 363.11
  L 577.50 351.50
  Q 577.50 351.00 578.00 351.00
  L 585.99 351.00
  A 1.42 1.38 68.3 0 1 587.02 351.46
  L 597.82 363.28
  Q 598.25 363.75 598.89 363.75
  L 601.30 363.75
  Q 602.17 363.75 601.58 363.10
  L 590.72 351.34
  Q 590.24 350.82 590.94 350.76
  Z
  M 637.53 355.89
  L 640.83 363.23
  Q 641.06 363.74 641.63 363.75
  L 643.50 363.77
  Q 644.23 363.78 643.93 363.11
  L 629.30 330.45
  A 2.15 2.15 0.0 0 0 625.38 330.45
  L 610.68 363.22
  Q 610.45 363.74 611.02 363.74
  L 613.04 363.75
  Q 613.61 363.75 613.84 363.23
  L 617.05 355.98
  Q 617.27 355.50 617.79 355.50
  L 636.93 355.50
  Q 637.36 355.50 637.53 355.89
  Z
  M 711.00 332.64
  A 0.39 0.39 0.0 0 1 711.39 332.25
  L 722.87 332.25
  A 0.39 0.39 0.0 0 0 723.26 331.86
  L 723.25 329.89
  A 0.39 0.39 0.0 0 0 722.86 329.50
  L 696.14 329.50
  A 0.39 0.39 0.0 0 0 695.75 329.89
  L 695.75 331.86
  A 0.39 0.39 0.0 0 0 696.14 332.25
  L 707.61 332.25
  A 0.39 0.39 0.0 0 1 708.00 332.64
  L 708.00 363.36
  A 0.39 0.39 0.0 0 0 708.39 363.75
  L 710.61 363.75
  A 0.39 0.39 0.0 0 0 711.00 363.36
  L 711.00 332.64
  Z
  M 739.19 345.25
  A 0.44 0.44 0.0 0 1 738.75 344.81
  L 738.75 332.69
  A 0.44 0.44 0.0 0 1 739.19 332.25
  L 759.09 332.25
  A 0.44 0.44 0.0 0 0 759.53 331.80
  L 759.46 329.94
  A 0.44 0.44 0.0 0 0 759.02 329.51
  L 736.44 329.49
  A 0.44 0.44 0.0 0 0 736.00 329.93
  L 736.00 363.31
  A 0.44 0.44 0.0 0 0 736.44 363.75
  L 759.55 363.75
  A 0.44 0.44 0.0 0 0 759.99 363.31
  L 760.00 361.44
  A 0.44 0.44 0.0 0 0 759.56 361.00
  L 739.19 361.00
  A 0.44 0.44 0.0 0 1 738.75 360.56
  L 738.75 348.19
  A 0.44 0.44 0.0 0 1 739.19 347.75
  L 758.08 347.75
  A 0.44 0.44 0.0 0 0 758.52 347.30
  L 758.50 345.68
  A 0.44 0.44 0.0 0 0 758.06 345.25
  L 739.19 345.25
  Z
  M 798.35 345.75
  A 0.35 0.35 0.0 0 1 798.00 345.40
  L 798.00 329.83
  A 0.35 0.35 0.0 0 0 797.65 329.48
  L 795.35 329.50
  A 0.35 0.35 0.0 0 0 795.00 329.85
  L 795.00 363.40
  A 0.35 0.35 0.0 0 0 795.35 363.75
  L 797.65 363.74
  A 0.35 0.35 0.0 0 0 798.00 363.39
  L 798.00 348.60
  A 0.35 0.35 0.0 0 1 798.35 348.25
  L 818.90 348.25
  A 0.35 0.35 0.0 0 1 819.25 348.60
  L 819.25 363.41
  A 0.35 0.35 0.0 0 0 819.60 363.76
  L 821.90 363.74
  A 0.35 0.35 0.0 0 0 822.25 363.39
  L 822.25 329.85
  A 0.35 0.35 0.0 0 0 821.90 329.50
  L 819.60 329.50
  A 0.35 0.35 0.0 0 0 819.25 329.85
  L 819.25 345.40
  A 0.35 0.35 0.0 0 1 818.90 345.75
  L 798.35 345.75
  Z
  M 895.00 332.58
  A 0.33 0.33 0.0 0 1 895.33 332.25
  L 906.93 332.25
  A 0.33 0.33 0.0 0 0 907.26 331.92
  L 907.25 329.83
  A 0.33 0.33 0.0 0 0 906.92 329.50
  L 880.08 329.50
  A 0.33 0.33 0.0 0 0 879.75 329.83
  L 879.75 331.92
  A 0.33 0.33 0.0 0 0 880.08 332.25
  L 891.67 332.25
  A 0.33 0.33 0.0 0 1 892.00 332.58
  L 892.00 363.42
  A 0.33 0.33 0.0 0 0 892.33 363.75
  L 894.67 363.75
  A 0.33 0.33 0.0 0 0 895.00 363.42
  L 895.00 332.58
  Z
  M 923.12 345.25
  A 0.37 0.37 0.0 0 1 922.75 344.88
  L 922.75 332.62
  A 0.37 0.37 0.0 0 1 923.12 332.25
  L 943.15 332.25
  A 0.37 0.37 0.0 0 0 943.52 331.87
  L 943.48 329.86
  A 0.37 0.37 0.0 0 0 943.11 329.50
  L 920.37 329.50
  A 0.37 0.37 0.0 0 0 920.00 329.87
  L 920.00 363.38
  A 0.37 0.37 0.0 0 0 920.37 363.75
  L 943.88 363.75
  A 0.37 0.37 0.0 0 0 944.25 363.38
  L 944.27 361.37
  A 0.37 0.37 0.0 0 0 943.90 361.00
  L 923.12 361.00
  A 0.37 0.37 0.0 0 1 922.75 360.63
  L 922.75 348.12
  A 0.37 0.37 0.0 0 1 923.12 347.75
  L 942.15 347.75
  A 0.37 0.37 0.0 0 0 942.52 347.38
  L 942.49 345.62
  A 0.37 0.37 0.0 0 0 942.12 345.25
  L 923.12 345.25
  Z
  M 960.98 361.00
  A 0.47 0.47 0.0 0 1 960.51 360.53
  L 960.48 329.97
  A 0.47 0.47 0.0 0 0 960.01 329.50
  L 958.22 329.48
  A 0.47 0.47 0.0 0 0 957.75 329.95
  L 957.75 363.28
  A 0.47 0.47 0.0 0 0 958.22 363.75
  L 979.28 363.75
  A 0.47 0.47 0.0 0 0 979.75 363.29
  L 979.76 361.48
  A 0.47 0.47 0.0 0 0 979.29 361.00
  L 960.98 361.00
  Z
  M 379.00 345.06
  A 0.31 0.31 0.0 0 0 378.69 344.75
  L 345.81 344.75
  A 0.31 0.31 0.0 0 0 345.50 345.06
  L 345.50 348.44
  A 0.31 0.31 0.0 0 0 345.81 348.75
  L 378.69 348.75
  A 0.31 0.31 0.0 0 0 379.00 348.44
  L 379.00 345.06
  Z
  M 1020.25 345.09
  A 0.34 0.34 0.0 0 0 1019.91 344.75
  L 986.59 344.75
  A 0.34 0.34 0.0 0 0 986.25 345.09
  L 986.25 348.41
  A 0.34 0.34 0.0 0 0 986.59 348.75
  L 1019.91 348.75
  A 0.34 0.34 0.0 0 0 1020.25 348.41
  L 1020.25 345.09
  Z
  M 350.14 435.00
  A 0.39 0.39 0.0 0 1 349.75 434.61
  L 349.75 389.64
  A 0.39 0.39 0.0 0 0 349.36 389.25
  L 346.14 389.25
  A 0.39 0.39 0.0 0 0 345.75 389.64
  L 345.75 438.61
  A 0.39 0.39 0.0 0 0 346.14 439.00
  L 377.35 439.00
  A 0.39 0.39 0.0 0 0 377.74 438.61
  L 377.75 435.39
  A 0.39 0.39 0.0 0 0 377.36 435.00
  L 350.14 435.00
  Z
  M 424.73 394.25
  A 0.38 0.38 0.0 0 1 425.42 394.25
  L 444.92 438.41
  Q 445.18 439.01 445.83 439.00
  L 448.91 438.98
  Q 449.63 438.98 449.33 438.32
  L 427.99 390.75
  A 3.16 3.16 0.0 0 0 422.23 390.75
  L 400.87 438.36
  Q 400.58 439.02 401.30 439.01
  L 404.64 438.97
  A 0.66 0.65 11.6 0 0 405.24 438.58
  L 424.73 394.25
  Z
  M 534.75 393.38
  A 0.38 0.38 0.0 0 1 535.13 393.00
  L 552.37 393.00
  A 0.38 0.38 0.0 0 0 552.75 392.62
  L 552.75 389.63
  A 0.38 0.38 0.0 0 0 552.37 389.25
  L 513.13 389.25
  A 0.38 0.38 0.0 0 0 512.75 389.63
  L 512.75 392.62
  A 0.38 0.38 0.0 0 0 513.13 393.00
  L 530.37 393.00
  A 0.38 0.38 0.0 0 1 530.75 393.38
  L 530.75 438.62
  A 0.38 0.38 0.0 0 0 531.13 439.00
  L 534.37 438.99
  A 0.38 0.38 0.0 0 0 534.75 438.61
  L 534.75 393.38
  Z
  M 614.99 389.74
  A 0.49 0.49 0.0 0 0 614.50 389.25
  L 579.74 389.25
  A 0.49 0.49 0.0 0 0 579.25 389.74
  L 579.25 392.50
  A 0.49 0.49 0.0 0 0 579.74 392.99
  L 614.50 392.99
  A 0.49 0.49 0.0 0 0 614.99 392.50
  L 614.99 389.74
  Z
  M 650.00 420.25
  L 662.29 420.25
  Q 662.81 420.25 663.16 420.64
  L 679.56 438.59
  Q 679.92 438.98 680.45 438.98
  L 684.64 438.98
  A 0.35 0.35 0.0 0 0 684.89 438.39
  L 668.54 420.69
  Q 667.94 420.05 668.82 420.01
  C 686.64 419.29 689.18 395.98 673.57 390.35
  Q 670.14 389.12 663.82 389.20
  Q 654.96 389.31 646.02 389.23
  Q 645.50 389.23 645.50 389.75
  L 645.50 438.50
  Q 645.50 439.00 646.00 439.00
  L 649.00 439.00
  Q 649.50 439.00 649.50 438.50
  L 649.50 420.75
  Q 649.50 420.25 650.00 420.25
  Z
  M 717.00 420.25
  L 729.44 420.25
  Q 729.87 420.25 730.15 420.56
  Q 737.45 428.52 744.70 436.55
  C 746.86 438.93 748.70 439.62 751.76 438.85
  Q 752.24 438.72 751.90 438.36
  L 735.37 420.44
  A 0.27 0.27 0.0 0 1 735.57 419.99
  C 756.31 419.90 755.76 389.57 734.98 389.32
  Q 724.05 389.19 712.99 389.27
  Q 712.50 389.27 712.50 389.76
  L 712.50 438.50
  Q 712.50 439.00 713.00 439.00
  L 716.00 439.00
  Q 716.50 439.00 716.50 438.50
  L 716.50 420.75
  Q 716.50 420.25 717.00 420.25
  Z
  M 798.45 394.29
  A 0.40 0.40 0.0 0 1 799.18 394.29
  L 818.65 438.41
  Q 818.91 439.00 819.56 439.00
  L 822.65 438.99
  Q 823.36 438.98 823.07 438.33
  L 801.73 390.75
  A 3.16 3.16 0.0 0 0 795.97 390.75
  L 774.61 438.37
  Q 774.33 439.00 775.02 439.00
  L 778.14 439.00
  Q 778.79 439.00 779.05 438.41
  L 798.45 394.29
  Z
  M 879.75 393.00
  A 0.32 0.32 0.0 0 1 880.01 393.50
  L 849.04 437.12
  A 1.19 1.18 17.7 0 0 850.01 438.99
  L 886.12 439.00
  Q 886.74 439.00 886.74 438.38
  L 886.75 435.63
  Q 886.75 435.00 886.13 435.00
  L 855.97 435.00
  A 0.43 0.43 0.0 0 1 855.62 434.31
  L 886.41 391.46
  Q 888.00 389.25 885.28 389.25
  L 851.25 389.25
  Q 850.76 389.25 850.75 389.75
  L 850.74 392.50
  Q 850.74 393.00 851.25 393.00
  L 879.75 393.00
  Z
  M 917.68 434.28
  L 948.99 390.71
  A 0.92 0.92 0.0 0 0 948.24 389.25
  L 913.25 389.25
  Q 912.75 389.25 912.75 389.75
  L 912.75 392.37
  Q 912.75 393.00 913.37 393.00
  L 941.66 393.00
  Q 942.41 393.00 941.98 393.62
  L 911.06 437.16
  A 1.16 1.16 0.0 0 0 912.01 438.99
  L 948.36 439.00
  Q 948.98 439.00 948.98 438.39
  L 949.00 435.88
  Q 949.00 435.01 948.13 435.01
  L 918.05 434.99
  A 0.45 0.45 0.0 0 1 917.68 434.28
  Z
  M 995.68 394.27
  A 0.39 0.39 0.0 0 1 996.39 394.27
  L 1015.87 438.42
  Q 1016.13 439.00 1016.76 439.00
  L 1019.89 438.99
  Q 1020.59 438.98 1020.30 438.35
  L 998.95 390.75
  A 3.16 3.16 0.0 0 0 993.18 390.75
  L 971.84 438.34
  Q 971.54 439.00 972.27 439.00
  L 975.49 438.99
  Q 976.01 438.99 976.22 438.52
  L 995.68 394.27
  Z
  M 613.25 412.31
  A 0.31 0.31 0.0 0 0 612.94 412.00
  L 579.56 412.00
  A 0.31 0.31 0.0 0 0 579.25 412.31
  L 579.25 415.43
  A 0.31 0.31 0.0 0 0 579.56 415.74
  L 612.94 415.74
  A 0.31 0.31 0.0 0 0 613.25 415.43
  L 613.25 412.31
  Z
  M 615.98 435.73
  A 0.72 0.72 0.0 0 0 615.26 435.01
  L 579.94 435.01
  A 0.72 0.72 0.0 0 0 579.22 435.73
  L 579.22 438.27
  A 0.72 0.72 0.0 0 0 579.94 438.99
  L 615.26 438.99
  A 0.72 0.72 0.0 0 0 615.98 438.27
  L 615.98 435.73
  Z"
/>
<path fill="#ffffff" d="
  M 469.35 360.56
  C 475.55 358.48 475.43 350.50 468.99 348.93
  Q 462.67 347.39 456.31 345.94
  C 452.32 345.02 449.82 341.61 450.27 337.48
  C 450.91 331.52 456.91 329.28 462.20 329.05
  C 467.65 328.81 472.38 329.90 475.62 334.61
  Q 475.91 335.03 475.46 335.28
  L 474.25 335.96
  Q 473.76 336.23 473.36 335.82
  C 469.05 331.35 461.29 330.06 455.66 333.87
  C 452.81 335.79 451.98 339.77 454.94 342.06
  C 459.14 345.33 467.07 344.55 472.50 347.35
  C 477.57 349.96 478.16 356.66 474.54 360.49
  Q 472.33 362.82 468.52 363.69
  C 461.18 365.37 453.76 363.72 449.31 357.31
  Q 448.95 356.79 449.51 356.50
  L 450.90 355.79
  Q 451.41 355.53 451.78 355.96
  Q 458.73 364.12 469.35 360.56
  Z"
/>
<path fill="#ffffff" d="
  M 560.3293 348.7188
  A 15.48 15.48 0.0 0 1 544.7685 364.1176
  L 541.7885 364.1020
  A 15.48 15.48 0.0 0 1 526.3898 348.5411
  L 526.4107 344.5412
  A 15.48 15.48 0.0 0 1 541.9715 329.1424
  L 544.9515 329.1580
  A 15.48 15.48 0.0 0 1 560.3502 344.7189
  L 560.3293 348.7188
  Z
  M 543.9241 361.7398
  A 15.12 14.56 87.9 0 0 557.9202 346.0965
  A 15.12 14.56 87.9 0 0 542.8159 331.5202
  A 15.12 14.56 87.9 0 0 528.8198 347.1635
  A 15.12 14.56 87.9 0 0 543.9241 361.7398
  Z"
/>
<path fill="#ffffff" d="
  M 870.2633 348.5303
  A 15.52 15.52 0.0 0 1 854.7705 364.0773
  L 851.7305 364.0826
  A 15.52 15.52 0.0 0 1 836.1834 348.5897
  L 836.1767 344.7297
  A 15.52 15.52 0.0 0 1 851.6695 329.1827
  L 854.7095 329.1774
  A 15.52 15.52 0.0 0 1 870.2566 344.6703
  L 870.2633 348.5303
  Z
  M 853.4111 361.7385
  A 15.12 14.56 89.2 0 0 867.7586 346.4167
  A 15.12 14.56 89.2 0 0 852.9889 331.5015
  A 15.12 14.56 89.2 0 0 838.6414 346.8233
  A 15.12 14.56 89.2 0 0 853.4111 361.7385
  Z"
/>
<path fill="#ffffff" d="
  M 680.25 356.53
  L 680.25 330.00
  Q 680.25 329.50 680.75 329.50
  L 682.49 329.49
  Q 683.00 329.49 683.00 329.99
  L 683.00 363.17
  A 0.73 0.73 0.0 0 1 681.71 363.63
  L 659.77 336.78
  Q 659.25 336.14 659.25 336.96
  L 659.25 363.12
  Q 659.25 363.75 658.63 363.75
  L 656.75 363.75
  Q 656.25 363.75 656.25 363.25
  L 656.25 330.13
  A 0.81 0.81 0.0 0 1 657.69 329.62
  L 679.76 356.71
  Q 680.25 357.31 680.25 356.53
  Z"
/>
<path fill="#ffffff" d="
  M 408.94 351.31
  L 419.83 363.10
  A 0.39 0.39 0.0 0 1 419.54 363.76
  L 417.00 363.74
  Q 416.48 363.74 416.14 363.36
  L 405.13 351.30
  Q 404.86 351.00 404.45 351.00
  L 396.25 351.00
  Q 395.75 351.00 395.75 351.50
  L 395.75 363.23
  Q 395.75 363.71 395.27 363.73
  L 393.52 363.78
  Q 393.00 363.79 393.00 363.27
  L 393.00 330.02
  Q 393.00 329.55 393.47 329.54
  Q 404.56 329.40 408.50 329.51
  C 414.64 329.70 418.80 333.81 419.12 339.97
  Q 419.60 349.23 409.11 350.84
  Q 408.58 350.92 408.94 351.31
  Z
  M 395.73 332.64
  L 395.73 347.88
  A 0.40 0.40 0.0 0 0 396.13 348.28
  L 408.17 348.28
  A 7.84 7.42 -0.0 0 0 416.01 340.86
  L 416.01 339.66
  A 7.84 7.42 0.0 0 0 408.17 332.24
  L 396.13 332.24
  A 0.40 0.40 0.0 0 0 395.73 332.64
  Z"
/>
<rect fill="#ffffff" x="432.25" y="329.49" width="3.00" height="34.26" rx="0.33"/>
<path fill="#ffffff" d="
  M 502.50 332.64
  L 502.50 363.35
  A 0.39 0.39 0.0 0 1 502.12 363.74
  L 500.15 363.76
  A 0.39 0.39 0.0 0 1 499.75 363.37
  L 499.75 332.64
  A 0.39 0.39 0.0 0 0 499.36 332.25
  L 487.90 332.25
  A 0.39 0.39 0.0 0 1 487.51 331.86
  L 487.49 329.89
  A 0.39 0.39 0.0 0 1 487.88 329.50
  L 514.35 329.50
  A 0.39 0.39 0.0 0 1 514.74 329.89
  L 514.75 331.86
  A 0.39 0.39 0.0 0 1 514.36 332.25
  L 502.89 332.25
  A 0.39 0.39 0.0 0 0 502.50 332.64
  Z"
/>
<path fill="#ffffff" d="
  M 590.72 351.34
  L 601.58 363.10
  Q 602.17 363.75 601.30 363.75
  L 598.89 363.75
  Q 598.25 363.75 597.82 363.28
  L 587.02 351.46
  A 1.42 1.38 68.3 0 0 585.99 351.00
  L 578.00 351.00
  Q 577.50 351.00 577.50 351.50
  L 577.50 363.11
  Q 577.50 363.73 576.89 363.74
  L 575.39 363.76
  Q 574.75 363.77 574.75 363.14
  L 574.75 330.01
  Q 574.75 329.51 575.25 329.51
  C 580.82 329.49 589.88 328.55 594.58 330.50
  C 604.80 334.73 602.52 349.70 590.94 350.76
  Q 590.24 350.82 590.72 351.34
  Z
  M 577.49 332.59
  L 577.51 347.93
  A 0.32 0.32 0.0 0 0 577.83 348.25
  L 589.94 348.23
  A 7.83 7.34 -0.1 0 0 597.76 340.87
  L 597.76 339.57
  A 7.83 7.34 -0.1 0 0 589.92 332.25
  L 577.81 332.27
  A 0.32 0.32 0.0 0 0 577.49 332.59
  Z"
/>
<path fill="#ffffff" d="
  M 636.93 355.50
  L 617.79 355.50
  Q 617.27 355.50 617.05 355.98
  L 613.84 363.23
  Q 613.61 363.75 613.04 363.75
  L 611.02 363.74
  Q 610.45 363.74 610.68 363.22
  L 625.38 330.45
  A 2.15 2.15 0.0 0 1 629.30 330.45
  L 643.93 363.11
  Q 644.23 363.78 643.50 363.77
  L 641.63 363.75
  Q 641.06 363.74 640.83 363.23
  L 637.53 355.89
  Q 637.36 355.50 636.93 355.50
  Z
  M 618.65 352.26
  A 0.35 0.35 0.0 0 0 618.97 352.75
  L 635.67 352.75
  A 0.35 0.35 0.0 0 0 635.99 352.26
  L 627.64 333.34
  A 0.35 0.35 0.0 0 0 627.00 333.34
  L 618.65 352.26
  Z"
/>
<path fill="#ffffff" d="
  M 711.00 332.64
  L 711.00 363.36
  A 0.39 0.39 0.0 0 1 710.61 363.75
  L 708.39 363.75
  A 0.39 0.39 0.0 0 1 708.00 363.36
  L 708.00 332.64
  A 0.39 0.39 0.0 0 0 707.61 332.25
  L 696.14 332.25
  A 0.39 0.39 0.0 0 1 695.75 331.86
  L 695.75 329.89
  A 0.39 0.39 0.0 0 1 696.14 329.50
  L 722.86 329.50
  A 0.39 0.39 0.0 0 1 723.25 329.89
  L 723.26 331.86
  A 0.39 0.39 0.0 0 1 722.87 332.25
  L 711.39 332.25
  A 0.39 0.39 0.0 0 0 711.00 332.64
  Z"
/>
<path fill="#ffffff" d="
  M 739.19 345.25
  L 758.06 345.25
  A 0.44 0.44 0.0 0 1 758.50 345.68
  L 758.52 347.30
  A 0.44 0.44 0.0 0 1 758.08 347.75
  L 739.19 347.75
  A 0.44 0.44 0.0 0 0 738.75 348.19
  L 738.75 360.56
  A 0.44 0.44 0.0 0 0 739.19 361.00
  L 759.56 361.00
  A 0.44 0.44 0.0 0 1 760.00 361.44
  L 759.99 363.31
  A 0.44 0.44 0.0 0 1 759.55 363.75
  L 736.44 363.75
  A 0.44 0.44 0.0 0 1 736.00 363.31
  L 736.00 329.93
  A 0.44 0.44 0.0 0 1 736.44 329.49
  L 759.02 329.51
  A 0.44 0.44 0.0 0 1 759.46 329.94
  L 759.53 331.80
  A 0.44 0.44 0.0 0 1 759.09 332.25
  L 739.19 332.25
  A 0.44 0.44 0.0 0 0 738.75 332.69
  L 738.75 344.81
  A 0.44 0.44 0.0 0 0 739.19 345.25
  Z"
/>
<path fill="#ffffff" d="
  M 798.35 345.75
  L 818.90 345.75
  A 0.35 0.35 0.0 0 0 819.25 345.40
  L 819.25 329.85
  A 0.35 0.35 0.0 0 1 819.60 329.50
  L 821.90 329.50
  A 0.35 0.35 0.0 0 1 822.25 329.85
  L 822.25 363.39
  A 0.35 0.35 0.0 0 1 821.90 363.74
  L 819.60 363.76
  A 0.35 0.35 0.0 0 1 819.25 363.41
  L 819.25 348.60
  A 0.35 0.35 0.0 0 0 818.90 348.25
  L 798.35 348.25
  A 0.35 0.35 0.0 0 0 798.00 348.60
  L 798.00 363.39
  A 0.35 0.35 0.0 0 1 797.65 363.74
  L 795.35 363.75
  A 0.35 0.35 0.0 0 1 795.00 363.40
  L 795.00 329.85
  A 0.35 0.35 0.0 0 1 795.35 329.50
  L 797.65 329.48
  A 0.35 0.35 0.0 0 1 798.00 329.83
  L 798.00 345.40
  A 0.35 0.35 0.0 0 0 798.35 345.75
  Z"
/>
<path fill="#ffffff" d="
  M 895.00 332.58
  L 895.00 363.42
  A 0.33 0.33 0.0 0 1 894.67 363.75
  L 892.33 363.75
  A 0.33 0.33 0.0 0 1 892.00 363.42
  L 892.00 332.58
  A 0.33 0.33 0.0 0 0 891.67 332.25
  L 880.08 332.25
  A 0.33 0.33 0.0 0 1 879.75 331.92
  L 879.75 329.83
  A 0.33 0.33 0.0 0 1 880.08 329.50
  L 906.92 329.50
  A 0.33 0.33 0.0 0 1 907.25 329.83
  L 907.26 331.92
  A 0.33 0.33 0.0 0 1 906.93 332.25
  L 895.33 332.25
  A 0.33 0.33 0.0 0 0 895.00 332.58
  Z"
/>
<path fill="#ffffff" d="
  M 923.12 345.25
  L 942.12 345.25
  A 0.37 0.37 0.0 0 1 942.49 345.62
  L 942.52 347.38
  A 0.37 0.37 0.0 0 1 942.15 347.75
  L 923.12 347.75
  A 0.37 0.37 0.0 0 0 922.75 348.12
  L 922.75 360.63
  A 0.37 0.37 0.0 0 0 923.12 361.00
  L 943.90 361.00
  A 0.37 0.37 0.0 0 1 944.27 361.37
  L 944.25 363.38
  A 0.37 0.37 0.0 0 1 943.88 363.75
  L 920.37 363.75
  A 0.37 0.37 0.0 0 1 920.00 363.38
  L 920.00 329.87
  A 0.37 0.37 0.0 0 1 920.37 329.50
  L 943.11 329.50
  A 0.37 0.37 0.0 0 1 943.48 329.86
  L 943.52 331.87
  A 0.37 0.37 0.0 0 1 943.15 332.25
  L 923.12 332.25
  A 0.37 0.37 0.0 0 0 922.75 332.62
  L 922.75 344.88
  A 0.37 0.37 0.0 0 0 923.12 345.25
  Z"
/>
<path fill="#ffffff" d="
  M 960.98 361.00
  L 979.29 361.00
  A 0.47 0.47 0.0 0 1 979.76 361.48
  L 979.75 363.29
  A 0.47 0.47 0.0 0 1 979.28 363.75
  L 958.22 363.75
  A 0.47 0.47 0.0 0 1 957.75 363.28
  L 957.75 329.95
  A 0.47 0.47 0.0 0 1 958.22 329.48
  L 960.01 329.50
  A 0.47 0.47 0.0 0 1 960.48 329.97
  L 960.51 360.53
  A 0.47 0.47 0.0 0 0 960.98 361.00
  Z"
/>
<ellipse fill="#000000" cx="0.00" cy="0.00" transform="translate(543.37,346.63) rotate(87.9)" rx="15.12" ry="14.56"/>
<ellipse fill="#000000" cx="0.00" cy="0.00" transform="translate(853.20,346.62) rotate(89.2)" rx="15.12" ry="14.56"/>
<path fill="#000000" d="
  M 395.73 332.64
  A 0.40 0.40 0.0 0 1 396.13 332.24
  L 408.17 332.24
  A 7.84 7.42 -0.0 0 1 416.01 339.66
  L 416.01 340.86
  A 7.84 7.42 -0.0 0 1 408.17 348.28
  L 396.13 348.28
  A 0.40 0.40 0.0 0 1 395.73 347.88
  L 395.73 332.64
  Z"
/>
<path fill="#000000" d="
  M 577.49 332.59
  A 0.32 0.32 0.0 0 1 577.81 332.27
  L 589.92 332.25
  A 7.83 7.34 -0.1 0 1 597.76 339.57
  L 597.76 340.87
  A 7.83 7.34 -0.1 0 1 589.94 348.23
  L 577.83 348.25
  A 0.32 0.32 0.0 0 1 577.51 347.93
  L 577.49 332.59
  Z"
/>
<path fill="#000000" d="
  M 618.65 352.26
  L 627.00 333.34
  A 0.35 0.35 0.0 0 1 627.64 333.34
  L 635.99 352.26
  A 0.35 0.35 0.0 0 1 635.67 352.75
  L 618.97 352.75
  A 0.35 0.35 0.0 0 1 618.65 352.26
  Z"
/>
<rect fill="#ffffff" x="345.50" y="344.75" width="33.50" height="4.00" rx="0.31"/>
<rect fill="#ffffff" x="986.25" y="344.75" width="34.00" height="4.00" rx="0.34"/>
<path fill="#ffffff" d="
  M 350.14 435.00
  L 377.36 435.00
  A 0.39 0.39 0.0 0 1 377.75 435.39
  L 377.74 438.61
  A 0.39 0.39 0.0 0 1 377.35 439.00
  L 346.14 439.00
  A 0.39 0.39 0.0 0 1 345.75 438.61
  L 345.75 389.64
  A 0.39 0.39 0.0 0 1 346.14 389.25
  L 349.36 389.25
  A 0.39 0.39 0.0 0 1 349.75 389.64
  L 349.75 434.61
  A 0.39 0.39 0.0 0 0 350.14 435.00
  Z"
/>
<path fill="#ffffff" d="
  M 424.73 394.25
  L 405.24 438.58
  A 0.66 0.65 11.6 0 1 404.64 438.97
  L 401.30 439.01
  Q 400.58 439.02 400.87 438.36
  L 422.23 390.75
  A 3.16 3.16 0.0 0 1 427.99 390.75
  L 449.33 438.32
  Q 449.63 438.98 448.91 438.98
  L 445.83 439.00
  Q 445.18 439.01 444.92 438.41
  L 425.42 394.25
  A 0.38 0.38 0.0 0 0 424.73 394.25
  Z"
/>
<path fill="#ffffff" d="
  M 534.75 393.38
  L 534.75 438.61
  A 0.38 0.38 0.0 0 1 534.37 438.99
  L 531.13 439.00
  A 0.38 0.38 0.0 0 1 530.75 438.62
  L 530.75 393.38
  A 0.38 0.38 0.0 0 0 530.37 393.00
  L 513.13 393.00
  A 0.38 0.38 0.0 0 1 512.75 392.62
  L 512.75 389.63
  A 0.38 0.38 0.0 0 1 513.13 389.25
  L 552.37 389.25
  A 0.38 0.38 0.0 0 1 552.75 389.63
  L 552.75 392.62
  A 0.38 0.38 0.0 0 1 552.37 393.00
  L 535.13 393.00
  A 0.38 0.38 0.0 0 0 534.75 393.38
  Z"
/>
<rect fill="#ffffff" x="579.25" y="389.25" width="35.74" height="3.74" rx="0.49"/>
<path fill="#ffffff" d="
  M 649.50 420.75
  L 649.50 438.50
  Q 649.50 439.00 649.00 439.00
  L 646.00 439.00
  Q 645.50 439.00 645.50 438.50
  L 645.50 389.75
  Q 645.50 389.23 646.02 389.23
  Q 654.96 389.31 663.82 389.20
  Q 670.14 389.12 673.57 390.35
  C 689.18 395.98 686.64 419.29 668.82 420.01
  Q 667.94 420.05 668.54 420.69
  L 684.89 438.39
  A 0.35 0.35 0.0 0 1 684.64 438.98
  L 680.45 438.98
  Q 679.92 438.98 679.56 438.59
  L 663.16 420.64
  Q 662.81 420.25 662.29 420.25
  L 650.00 420.25
  Q 649.50 420.25 649.50 420.75
  Z
  M 649.54 393.29
  L 649.46 416.13
  A 0.33 0.33 0.0 0 0 649.79 416.46
  L 667.63 416.52
  A 11.59 10.76 0.2 0 0 679.26 405.80
  L 679.26 403.82
  A 11.59 10.76 0.2 0 0 667.71 393.02
  L 649.87 392.96
  A 0.33 0.33 0.0 0 0 649.54 393.29
  Z"
/>
<path fill="#ffffff" d="
  M 716.50 420.75
  L 716.50 438.50
  Q 716.50 439.00 716.00 439.00
  L 713.00 439.00
  Q 712.50 439.00 712.50 438.50
  L 712.50 389.76
  Q 712.50 389.27 712.99 389.27
  Q 724.05 389.19 734.98 389.32
  C 755.76 389.57 756.31 419.90 735.57 419.99
  A 0.27 0.27 0.0 0 0 735.37 420.44
  L 751.90 438.36
  Q 752.24 438.72 751.76 438.85
  C 748.70 439.62 746.86 438.93 744.70 436.55
  Q 737.45 428.52 730.15 420.56
  Q 729.87 420.25 729.44 420.25
  L 717.00 420.25
  Q 716.50 420.25 716.50 420.75
  Z
  M 716.47 393.61
  L 716.39 415.87
  A 0.68 0.68 0.0 0 0 717.07 416.55
  L 734.51 416.61
  A 11.90 11.41 0.2 0 0 746.45 405.24
  L 746.45 404.44
  A 11.90 11.41 0.2 0 0 734.59 392.99
  L 717.15 392.93
  A 0.68 0.68 0.0 0 0 716.47 393.61
  Z"
/>
<path fill="#ffffff" d="
  M 798.45 394.29
  L 779.05 438.41
  Q 778.79 439.00 778.14 439.00
  L 775.02 439.00
  Q 774.33 439.00 774.61 438.37
  L 795.97 390.75
  A 3.16 3.16 0.0 0 1 801.73 390.75
  L 823.07 438.33
  Q 823.36 438.98 822.65 438.99
  L 819.56 439.00
  Q 818.91 439.00 818.65 438.41
  L 799.18 394.29
  A 0.40 0.40 0.0 0 0 798.45 394.29
  Z"
/>
<path fill="#ffffff" d="
  M 879.75 393.00
  L 851.25 393.00
  Q 850.74 393.00 850.74 392.50
  L 850.75 389.75
  Q 850.76 389.25 851.25 389.25
  L 885.28 389.25
  Q 888.00 389.25 886.41 391.46
  L 855.62 434.31
  A 0.43 0.43 0.0 0 0 855.97 435.00
  L 886.13 435.00
  Q 886.75 435.00 886.75 435.63
  L 886.74 438.38
  Q 886.74 439.00 886.12 439.00
  L 850.01 438.99
  A 1.19 1.18 17.7 0 1 849.04 437.12
  L 880.01 393.50
  A 0.32 0.32 0.0 0 0 879.75 393.00
  Z"
/>
<path fill="#ffffff" d="
  M 918.05 434.99
  L 948.13 435.01
  Q 949.00 435.01 949.00 435.88
  L 948.98 438.39
  Q 948.98 439.00 948.36 439.00
  L 912.01 438.99
  A 1.16 1.16 0.0 0 1 911.06 437.16
  L 941.98 393.62
  Q 942.41 393.00 941.66 393.00
  L 913.37 393.00
  Q 912.75 393.00 912.75 392.37
  L 912.75 389.75
  Q 912.75 389.25 913.25 389.25
  L 948.24 389.25
  A 0.92 0.92 0.0 0 1 948.99 390.71
  L 917.68 434.28
  A 0.45 0.45 0.0 0 0 918.05 434.99
  Z"
/>
<path fill="#ffffff" d="
  M 995.68 394.27
  L 976.22 438.52
  Q 976.01 438.99 975.49 438.99
  L 972.27 439.00
  Q 971.54 439.00 971.84 438.34
  L 993.18 390.75
  A 3.16 3.16 0.0 0 1 998.95 390.75
  L 1020.30 438.35
  Q 1020.59 438.98 1019.89 438.99
  L 1016.76 439.00
  Q 1016.13 439.00 1015.87 438.42
  L 996.39 394.27
  A 0.39 0.39 0.0 0 0 995.68 394.27
  Z"
/>
<path fill="#000000" d="
  M 649.54 393.29
  A 0.33 0.33 0.0 0 1 649.87 392.96
  L 667.71 393.02
  A 11.59 10.76 0.2 0 1 679.26 403.82
  L 679.26 405.80
  A 11.59 10.76 0.2 0 1 667.63 416.52
  L 649.79 416.46
  A 0.33 0.33 0.0 0 1 649.46 416.13
  L 649.54 393.29
  Z"
/>
<path fill="#000000" d="
  M 716.47 393.61
  A 0.68 0.68 0.0 0 1 717.15 392.93
  L 734.59 392.99
  A 11.90 11.41 0.2 0 1 746.45 404.44
  L 746.45 405.24
  A 11.90 11.41 0.2 0 1 734.51 416.61
  L 717.07 416.55
  A 0.68 0.68 0.0 0 1 716.39 415.87
  L 716.47 393.61
  Z"
/>
<rect fill="#ffffff" x="579.25" y="412.00" width="34.00" height="3.74" rx="0.31"/>
<rect fill="#ffffff" x="579.22" y="435.01" width="36.76" height="3.98" rx="0.72"/>
</svg>
